<?xml version="1.0" encoding="UTF-8" standalone="no"?>
<!-- Created with Inkscape (http://www.inkscape.org/) -->

<svg
   version="1.1"
   id="svg2"
   width="458.66666"
   height="66.293335"
   viewBox="0 0 458.66666 66.293335"
   sodipodi:docname="energiedirect-paars-groen(default).eps"
   xmlns:inkscape="http://www.inkscape.org/namespaces/inkscape"
   xmlns:sodipodi="http://sodipodi.sourceforge.net/DTD/sodipodi-0.dtd"
   xmlns="http://www.w3.org/2000/svg"
   xmlns:svg="http://www.w3.org/2000/svg">
  <defs
     id="defs6" />
  <sodipodi:namedview
     id="namedview4"
     pagecolor="#ffffff"
     bordercolor="#000000"
     borderopacity="0.25"
     inkscape:showpageshadow="2"
     inkscape:pageopacity="0.0"
     inkscape:pagecheckerboard="0"
     inkscape:deskcolor="#d1d1d1" />
  <g
     id="g8"
     inkscape:groupmode="layer"
     inkscape:label="ink_ext_XXXXXX"
     transform="matrix(1.3333333,0,0,-1.3333333,0,66.293333)">
    <g
       id="g10"
       transform="scale(0.1)">
      <path
         d="M 2137.06,330.531 V 166.18 h -51.98 c -28.95,0 -49.24,6.152 -61.09,18.347 -11.85,12.196 -17.78,32.942 -17.78,62.118 0,30.089 6.5,51.632 19.38,64.511 12.88,12.879 34.76,19.375 65.53,19.375 z m -70.22,-226.015 h 146.13 v 392.648 h -75.91 V 392.762 h -65.2 c -28.6,0 -51.74,-3.418 -69.29,-10.258 -17.56,-6.84 -32.6,-18.234 -45.03,-34.078 -10.48,-13.11 -18.35,-27.696 -23.47,-43.653 -5.14,-15.957 -7.75,-33.507 -7.75,-52.543 0,-46.503 12.42,-82.746 37.15,-108.734 24.74,-25.984 59.15,-38.98 103.37,-38.98"
         style="fill:#57c035;fill-opacity:1;fill-rule:evenodd;stroke:none"
         id="path12" />
      <path
         d="m 2279.18,104.516 h 79.9 v 288.246 h -79.9 z m 0,321.07 h 79.9 v 71.578 h -79.9 v -71.578"
         style="fill:#57c035;fill-opacity:1;fill-rule:evenodd;stroke:none"
         id="path14" />
      <path
         d="m 2424.73,392.762 h 128 c 29.86,0 50.83,-5.356 62.91,-16.184 12.08,-10.828 18.01,-29.633 18.01,-56.531 v -48.098 h -72.72 v 37.156 c 0,11.168 -2.05,18.692 -6.04,22.567 -3.98,3.875 -13.1,5.699 -27.35,5.699 h -26.67 V 104.402 h -76.14 v 288.36"
         style="fill:#57c035;fill-opacity:1;fill-rule:nonzero;stroke:none"
         id="path16" />
      <path
         d="m 2810.54,104.516 c -47.75,0 -83.88,12.195 -108.27,36.472 -24.51,24.278 -36.7,60.18 -36.7,107.481 0,47.414 12.3,83.203 36.81,107.707 24.62,24.39 60.64,36.586 108.16,36.586 h 111.13 v -60.067 h -100.75 c -27.59,0 -46.16,-3.875 -55.74,-11.738 -9.57,-7.863 -14.7,-21.996 -15.39,-42.512 h 171.77 v -60.066 h -171.77 c 0.69,-20.629 5.48,-34.762 14.25,-42.285 8.78,-7.524 27.58,-11.399 56.19,-11.399 h 101.21 v -60.062 h -110.9 v -0.117"
         style="fill:#57c035;fill-opacity:1;fill-rule:nonzero;stroke:none"
         id="path18" />
      <path
         d="m 3127.28,166.18 h 80.93 v -61.664 h -103.38 c -26.21,0 -47.64,2.738 -64.51,8.093 -16.87,5.469 -31.46,14.246 -44,26.329 -13.33,13.218 -23.81,29.292 -31.34,48.21 -7.52,18.922 -11.4,39.094 -11.4,60.293 0,22.227 3.76,43.086 11.17,62.348 7.53,19.375 18.01,35.445 31.57,48.438 12.66,12.082 27.47,20.859 44.45,26.328 16.99,5.472 38.3,8.093 63.95,8.093 h 103.37 v -62.23 h -80.92 c -35.79,0 -60.41,-6.156 -73.97,-18.578 -13.57,-12.426 -20.29,-33.852 -20.29,-64.512 0,-17.668 2.73,-32.254 8.32,-43.765 5.47,-11.625 14.02,-20.973 25.65,-28.04 5.69,-3.418 12.3,-5.812 19.94,-7.179 7.64,-1.485 21.09,-2.164 40.46,-2.164"
         style="fill:#57c035;fill-opacity:1;fill-rule:nonzero;stroke:none"
         id="path20" />
      <path
         d="m 3229.86,392.762 h 53.68 v 104.402 h 76.14 V 392.762 h 80.35 v -57.446 h -80.35 v -116.48 c 0,-21.43 3.65,-36.246 10.94,-44.453 7.3,-8.32 20.06,-12.422 38.19,-12.422 h 31.22 v -57.445 h -69.41 c -28.15,0 -49.69,7.75 -64.62,23.367 -14.93,15.613 -22.46,37.84 -22.46,66.902 v 140.531 h -53.68 v 57.446"
         style="fill:#57c035;fill-opacity:1;fill-rule:nonzero;stroke:none"
         id="path22" />
      <path
         d="m 145.094,104.516 c -47.7581,0 -83.887,12.195 -108.2815,36.472 C 12.1953,165.266 0,201.055 0,248.469 c 0,47.414 12.3086,83.203 36.8125,107.707 24.6211,24.39 60.6367,36.586 108.1645,36.586 H 256.105 V 332.695 H 155.352 c -27.586,0 -46.164,-3.875 -55.7348,-11.738 C 90.043,313.094 85.1406,298.848 84.457,278.332 H 256.219 V 218.266 H 84.457 c 0.6836,-20.629 5.4688,-34.762 14.2461,-42.286 8.7769,-7.523 27.5819,-11.398 56.1919,-11.398 h 101.21 V 104.516 H 145.094"
         style="fill:#372a71;fill-opacity:1;fill-rule:nonzero;stroke:none"
         id="path24" />
      <path
         d="m 304.773,392.762 h 143.153 c 43.312,0 74.199,-8.09 92.664,-24.391 18.465,-16.297 27.808,-43.308 27.808,-81.035 V 104.633 h -76.019 v 173.242 c 0,21.539 -3.309,35.559 -10.031,41.941 -6.727,6.383 -20.059,9.575 -40.235,9.575 H 380.91 V 104.516 h -76.137 v 288.246"
         style="fill:#372a71;fill-opacity:1;fill-rule:nonzero;stroke:none"
         id="path26" />
      <path
         d="m 761.59,104.516 c -47.758,0 -83.887,12.195 -108.277,36.472 -24.391,24.278 -36.704,60.18 -36.704,107.481 0,47.414 12.313,83.203 36.821,107.707 24.613,24.39 60.633,36.586 108.16,36.586 H 872.719 V 332.695 H 771.961 c -27.582,0 -46.16,-3.875 -55.734,-11.738 -9.571,-7.863 -14.704,-21.996 -15.387,-42.512 H 872.602 V 218.379 H 700.953 c 0.688,-20.629 5.477,-34.762 14.246,-42.285 8.778,-7.524 27.582,-11.399 56.192,-11.399 H 872.602 V 104.633 H 761.59 v -0.117"
         style="fill:#372a71;fill-opacity:1;fill-rule:nonzero;stroke:none"
         id="path28" />
      <path
         d="m 921.383,392.762 h 127.997 c 29.86,0 50.83,-5.356 62.91,-16.184 12.09,-10.828 18.02,-29.633 18.02,-56.531 v -48.098 h -72.72 v 37.156 c 0,11.168 -2.06,18.692 -6.05,22.567 -3.98,3.875 -13.1,5.699 -27.35,5.699 H 997.523 V 104.402 h -76.14 v 288.36"
         style="fill:#372a71;fill-opacity:1;fill-rule:nonzero;stroke:none"
         id="path30" />
      <path
         d="m 1372.28,164.012 h -39.55 c -35.22,0 -59.73,6.269 -73.52,18.804 -13.68,12.539 -20.52,34.309 -20.52,65.082 0,18.692 2.63,33.965 8.1,45.59 5.35,11.625 14.02,21.086 25.75,28.153 5.7,3.304 12.43,5.812 20.07,7.179 7.75,1.485 21.08,2.168 40.12,2.168 h 39.55 z m 50.15,-136.2034 c 17.66,18.4648 26.44,47.5312 26.44,87.0784 v 277.761 h -138.6 c -26.78,0 -48.44,-2.621 -64.96,-7.863 -16.64,-5.359 -31,-14.019 -43.32,-26.101 -13.78,-12.993 -24.27,-29.067 -31.68,-48.442 -7.41,-19.262 -11.05,-40.117 -11.05,-62.344 0,-22.566 3.64,-43.539 11.05,-63.031 7.41,-19.488 18.01,-35.672 31.68,-48.664 11.86,-11.629 24.97,-19.832 38.98,-24.621 14.02,-4.785 37.16,-7.18 69.19,-7.18 h 62 v -4.7848 c 0,-13.3359 -3.87,-23.4805 -11.74,-30.5469 -7.75,-7.0664 -19.03,-10.6015 -33.62,-10.6015 H 1190.59 V 0 h 149.32 c 37.38,0 64.85,9.34766 82.52,27.8086"
         style="fill:#372a71;fill-opacity:1;fill-rule:evenodd;stroke:none"
         id="path32" />
      <path
         d="m 1592.13,425.586 h -79.89 v 71.578 h 79.89 v -71.578"
         style="fill:#372a71;fill-opacity:1;fill-rule:nonzero;stroke:none"
         id="path34" />
      <path
         d="m 1592.13,104.516 h -79.89 v 288.246 h 79.89 V 104.516"
         style="fill:#372a71;fill-opacity:1;fill-rule:nonzero;stroke:none"
         id="path36" />
      <path
         d="m 1786.35,104.516 c -47.76,0 -83.88,12.195 -108.28,36.472 -24.5,24.278 -36.7,60.18 -36.7,107.481 0,47.414 12.31,83.203 36.82,107.707 24.62,24.39 60.63,36.586 108.16,36.586 h 111.13 v -60.067 h -100.76 c -27.58,0 -46.16,-3.875 -55.73,-11.738 -9.57,-7.863 -14.71,-21.996 -15.39,-42.512 h 171.77 V 218.379 H 1725.6 c 0.68,-20.629 5.47,-34.762 14.25,-42.285 8.78,-7.524 27.58,-11.399 56.19,-11.399 h 101.21 v -60.062 h -110.9 v -0.117"
         style="fill:#372a71;fill-opacity:1;fill-rule:nonzero;stroke:none"
         id="path38" />
    </g>
  </g>
</svg>
