<?xml version="1.0" encoding="UTF-8"?>
<svg width="531px" height="189px" viewBox="0 0 531 189" version="1.1" xmlns="http://www.w3.org/2000/svg" xmlns:xlink="http://www.w3.org/1999/xlink">
    <title>ENGIE</title>
    <g id="Page-1" stroke="none" stroke-width="1" fill="none" fill-rule="evenodd">
        <g id="engie" fill="#00AAFF" fill-rule="nonzero">
            <path d="M531,77 C461.817742,29.2348131 368.369355,0 265.5,0 C162.630645,0 69.1822581,29.2348131 0,77 C75.8776042,51.2396054 164.210938,38.359408 265,38.359408 C365.789062,38.359408 454.455729,51.2396054 531,77 Z" id="Shape"></path>
            <path d="M224.3,100.8 C219.1,100.8 216.4,105 215.7,110.2 C214.9,115.9 211.9,135.7 211.3,140.7 C210.9,143.7 210.7,146.9 207.8,148.2 C204.9,149.5 201.3,147.5 198.3,144.9 C195.3,142.3 150.4,104.1 150.4,104.1 C147.8,101.8 144.6,100.8 141.5,100.8 C134.7,100.8 128.2,105 128.2,115.3 L128.2,179 C128.2,184 131.7,187.1 135.9,187.1 C140.5,187.1 143.5,184 144.2,179.6 C144.2,179.6 149.1,149.2 149.7,145.9 C150.4,142 151,138.9 154.8,137.7 C158.2,136.6 161.5,138.6 166.3,142.9 C171.1,147.1 211.5,183.6 211.5,183.6 C214.6,186.2 216.8,187.3 221.2,187.3 C225.2,187.3 232.4,185.7 232.4,173.5 L232.4,110 C232.4,104 228.8,100.8 224.3,100.8 L224.3,100.8 Z M513.4,168.6 C478.2,176.2 437.9,168.1 437.9,143.2 C437.9,124.4 455.4,116.7 469.1,115.6 C483.5,114.4 494.8,117.5 500.6,123.5 C504.2,127.3 503.2,132.4 496.1,132.8 C489.5,133.2 477.2,133.6 467,134 C461.2,134.2 458.1,137.3 458.1,141.5 C458.1,144.8 460.6,148.6 467.3,148.6 C476.9,148.6 501.2,148.8 513.3,148.8 C521.3,148.8 525.2,144.4 525.2,135.2 C525.2,120.7 512,98.6 473.5,98.6 C438.6,98.6 413.3,116 413.3,144.4 C413.3,184.7 472.7,197 516.1,182.1 C520.2,180.7 524,177.7 522.8,173.1 C521.7,169.1 518.4,167.6 513.4,168.6 L513.4,168.6 Z M104.9,168.6 C69.7,176.2 29.4,168.1 29.4,143.2 C29.4,124.4 46.9,116.7 60.6,115.6 C75,114.4 86.3,117.5 92.1,123.5 C95.7,127.3 94.7,132.4 87.6,132.8 C81,133.2 68.7,133.6 58.5,134 C52.7,134.2 49.6,137.3 49.6,141.5 C49.6,144.8 52.1,148.6 58.8,148.6 C68.4,148.6 92.7,148.8 104.8,148.8 C112.8,148.8 116.7,144.4 116.7,135.2 C116.7,120.7 103.5,98.6 65,98.6 C30.1,98.6 4.8,116 4.8,144.4 C4.8,184.7 64.2,197 107.6,182.1 C111.7,180.7 115.5,177.7 114.3,173.1 C113.3,169.1 109.9,167.6 104.9,168.6 L104.9,168.6 Z M377.6,129.9 C378.4,151.9 380.4,170.1 381,176.5 C381.7,184.7 386,187.1 390.3,187.1 C394.4,187.1 398.8,185 399.5,176.6 C400.1,169.6 402.2,147.8 403.2,126.3 C403.3,125.2 402.5,124.7 401.6,124.9 L378.7,128.6 C378.1,128.7 377.6,129.2 377.6,129.9 L377.6,129.9 Z M390.4,98.7 C379.9,98.7 376.8,106.9 376.9,112 C376.9,112.9 377,115.5 377.2,118.8 C377.2,119.5 377.9,120.2 378.8,120.1 L402.7,116.2 C403.5,116 403.8,115.5 403.9,114.9 C404,113.8 404,112.6 404,112.1 C404.1,107.2 401,98.7 390.4,98.7 L390.4,98.7 Z M355.3,133.8 C347.3,133.8 322.7,134 307,134 C299.4,134 297.5,138.1 297.5,141.5 C297.5,144.5 299.5,148.3 306.7,148.7 C317.6,149.3 331.4,149.9 337.7,150.2 C346.3,150.6 346.4,155.1 343.5,158.8 C337.7,166.4 323.5,171.4 308.8,171.4 C289.6,171.4 268.4,160.5 268.4,143.1 C268.4,126.8 286.5,108.9 340.3,116.5 C345,117.2 349.7,116.3 350.9,111.9 C352.1,107.2 349.1,104.3 343,102.6 C330.8,99.4 319.7,98.6 309.1,98.6 C272.9,98.6 243.8,115.9 243.8,143.8 C243.8,173.6 272.7,188.2 308.8,188.2 C349.1,188.2 368.7,166.3 368.7,147.1 C368.6,137.5 363.6,133.8 355.3,133.8 L355.3,133.8 Z" id="Shape"></path>
        </g>
    </g>
</svg>
