<svg xmlns="http://www.w3.org/2000/svg" xmlns:xlink="http://www.w3.org/1999/xlink" viewBox="0 0 853.3 590" enable-background="new 0 0 853.3 590" width="853.3" height="590"><style type="text/css">.st0{fill:#1F5530;} .st1{clip-path:url(#SVGID_2_);} .st2{clip-path:url(#SVGID_4_);fill:url(#SVGID_5_);}</style><path d="M48.1 304.1c-13.4 0-24.7-4.7-34.1-14.1S0 269.3 0 256.2V146.5c0-13.3 4.7-24.7 14.1-34.1 9.4-9.3 20.7-14 34-14 13.4 0 24.7 4.7 34 14.1 9.3 9.4 13.9 20.7 13.9 34v23H64.6v-23.6c0-4.8-1.7-8.9-5.1-12.3-3.4-3.4-7.5-5.1-12.4-5.1-4.8 0-8.9 1.7-12.3 5.1-3.4 3.4-5 7.5-5 12.3v110c0 4.8 1.7 8.9 5 12.3 3.4 3.4 7.4 5 12.3 5 4.8 0 8.9-1.7 12.4-5 3.4-3.4 5.1-7.4 5.1-12.2v-39.5H47.8V186H96v70.2c0 13.4-4.7 24.7-14.1 34-9.4 9.3-20.7 13.9-33.8 13.9M178.2 149.1c0-11.6-5.8-17.5-17.3-17.5h-18.3v64.3h18.3c4.8 0 8.9-1.7 12.3-5.1s5-7.5 5-12.3v-29.4zm-18.1-48.4c16.9 0 29.3 4.6 37.2 13.9 6.9 8.1 10.4 19.4 10.4 34v29.2c0 14.2-5.4 26.2-16.2 36.1l22.4 87.7h-32.7l-18.4-75.7c-.9 0-1.8 0-2.7 0h-17.5v75.7h-30.3V100.7h47.8M223.9 301.6V100.5h86.2V131h-55.9v54.8h40.9v30.4h-40.9V271h55.9v30.5h-86.2M323.1 301.6V100.5h86.2V131h-55.9v54.8h40.9v30.4h-40.9V271h55.9v30.5h-86.2M456.2 100.5l40.2 135.1V100.5h30.3v201h-32.6l-41.7-128.7v128.7h-30.3v-201h34.1M62.1 590c-17.3 0-31.9-6-44-18.1S0 545.2 0 528.1V386.3c0-17.3 6.1-32 18.2-44 12.2-12.1 26.8-18.1 43.9-18.1 17.3 0 31.9 6.1 43.9 18.2 12 12.2 18 26.8 18 43.9v29.6H83.4v-30.4c0-6.2-2.2-11.5-6.6-15.9-4.4-4.4-9.7-6.6-16-6.6-6.2 0-11.5 2.2-15.9 6.6-4.3 4.4-6.5 9.7-6.5 15.9v142.2c0 6.2 2.2 11.5 6.5 15.9 4.4 4.4 9.6 6.5 15.9 6.5 6.2 0 11.5-2.2 16-6.5 4.4-4.4 6.6-9.6 6.6-15.9v-35.9h40.7v36.3c0 17.3-6.1 31.9-18.2 43.9-12.2 12-26.8 18-43.8 18M181.4 476.6v110h-39.2V327h39.2v110.2h47.2V327h39.2v259.7h-39.2v-110l-47.2-.1M373.8 385c0-6.2-2.2-11.5-6.5-15.9s-9.6-6.5-15.8-6.5c-6.2 0-11.5 2.2-16 6.5-4.4 4.3-6.6 9.6-6.6 15.9v142.1c0 6.2 2.2 11.5 6.6 15.9s9.7 6.5 16 6.5c6.2 0 11.5-2.2 15.8-6.5 4.4-4.3 6.5-9.6 6.5-15.9V385zm-21.3-61.3c17.3 0 32 6.1 44 18.2 12.1 12.2 18.1 26.8 18.1 43.9v141.7c0 17.3-6.1 31.9-18.2 44-12.2 12.1-26.8 18.1-43.9 18.1-17.3 0-31.9-6.1-43.9-18.2s-18-26.8-18-43.9V385.9c0-17.3 6.1-31.9 18.2-44 12.1-12.2 26.7-18.2 43.7-18.2" class="st0"/><path d="M437.3 586.7h39.2V327h-39.2v259.7zM561.2 590c-17.3 0-31.9-6-44-18.1-12.1-12.1-18.1-26.7-18.1-43.9V386.3c0-17.3 6.1-32 18.2-44 12.1-12.1 26.8-18.1 43.9-18.1 17.3 0 31.9 6.1 43.9 18.2 12 12.2 18 26.8 18 43.9v29.6h-40.6v-30.4c0-6.2-2.2-11.5-6.6-15.9-4.4-4.4-9.7-6.6-16-6.6-6.2 0-11.5 2.2-15.8 6.6s-6.5 9.7-6.5 15.9v142.2c0 6.2 2.2 11.5 6.5 15.9 4.4 4.4 9.6 6.5 15.8 6.5s11.5-2.2 16-6.5c4.4-4.4 6.6-9.6 6.6-15.9v-35.9h40.6v36.3c0 17.3-6.1 31.9-18.2 43.9s-26.7 18-43.7 18M641.3 586.7V326.8h111.5v39.4h-72.3v70.9h52.8v39.4h-52.8v70.9h72.3v39.4l-111.5-.1" class="st0"/><defs><path id="SVGID_1_" d="M803.1 50.3H602v201.1h201.1V50.3zM551.7 26.4c0-14.5 11.9-26.4 26.4-26.4h248.8c14.5 0 26.4 11.9 26.4 26.4v248.8c0 14.5-11.9 26.4-26.4 26.4H578.1c-14.5 0-26.4-11.9-26.4-26.4V26.4"/></defs><clipPath id="SVGID_2_"><use xlink:href="#SVGID_1_" overflow="visible"/></clipPath><g class="st1"><defs><path id="SVGID_3_" d="M803.1 50.3H602v201.1h201.1V50.3zM551.7 26.4c0-14.5 11.9-26.4 26.4-26.4h248.8c14.5 0 26.4 11.9 26.4 26.4v248.8c0 14.5-11.9 26.4-26.4 26.4H578.1c-14.5 0-26.4-11.9-26.4-26.4V26.4z"/></defs><clipPath id="SVGID_4_"><use xlink:href="#SVGID_3_" overflow="visible"/></clipPath><linearGradient id="SVGID_5_" x1="-321.031" x2="-320.031" y1="-98.916" y2="-98.916" gradientUnits="userSpaceOnUse" gradientTransform="matrix(338.178 -338.178 338.178 338.178 142552.672 -74796.633)"><stop offset="0" stop-color="#1F5530"/><stop offset=".06" stop-color="#1F5530"/><stop offset=".4" stop-color="#2B8450"/><stop offset=".78" stop-color="#8ED23E"/><stop offset="1" stop-color="#8ED23E"/></linearGradient><path d="M803.1 50.3H602v201.1h201.1V50.3zM551.7 26.4c0-14.5 11.9-26.4 26.4-26.4h248.8c14.5 0 26.4 11.9 26.4 26.4v248.8c0 14.5-11.9 26.4-26.4 26.4H578.1c-14.5 0-26.4-11.9-26.4-26.4V26.4" class="st2"/></g></svg>
