<svg width="165" height="36" xmlns="http://www.w3.org/2000/svg" aria-hidden="true" class="css-13pf5yc" color="tertiary" style="fill:#000649" viewBox="0 0 119 26"><path fill-rule="evenodd" d="M51.673.773a2.493 2.493 0 0 0-3.524-.047L39.57 9.08 30.99.726A2.493 2.493 0 1 0 27.513 4.3l8.475 8.26-8.49 8.26a2.494 2.494 0 0 0 3.48 3.575l8.58-8.355 8.578 8.355a2.494 2.494 0 0 0 3.478-3.574l-8.475-8.26L51.625 4.3a2.494 2.494 0 0 0 .048-3.527zm28.319 0a2.493 2.493 0 0 0-3.524-.047l-8.58 8.355L59.303.726a2.495 2.495 0 0 0-3.48 3.574l8.484 8.26-8.485 8.261a2.494 2.494 0 0 0 3.478 3.574l8.587-8.355 8.58 8.355a2.494 2.494 0 0 0 3.477-3.574l-8.487-8.26L79.944 4.3a2.494 2.494 0 0 0 .048-3.527zM85.12.75a2.494 2.494 0 0 1 4.256 1.764v20.093a2.495 2.495 0 1 1-4.986 0V2.514c0-.662.262-1.296.73-1.764zM12.541.019a12.541 12.541 0 1 0 12.54 12.54A12.555 12.555 0 0 0 12.542.02zm0 20.095a7.555 7.555 0 1 1 7.554-7.554 7.564 7.564 0 0 1-7.554 7.554zM98.569 2.133a12.54 12.54 0 0 1 6.967-2.114 12.555 12.555 0 0 1 12.541 12.541A12.54 12.54 0 1 1 98.569 2.133zm2.77 16.709a7.556 7.556 0 0 0 4.197 1.273 7.563 7.563 0 0 0 7.555-7.555 7.55 7.55 0 0 0-9.028-7.41 7.55 7.55 0 0 0-5.936 5.937 7.555 7.555 0 0 0 3.212 7.755z" clip-rule="evenodd"/></svg>
