<?xml version="1.0" encoding="utf-8"?>
<!-- Generator: Adobe Illustrator 27.0.0, SVG Export Plug-In . SVG Version: 6.00 Build 0)  -->
<svg height="50" width="146" version="1.1" id="Layer_1" xmlns="http://www.w3.org/2000/svg" xmlns:xlink="http://www.w3.org/1999/xlink" x="0px" y="0px"
	 viewBox="0 0 637.75 176.02" enable-background="new 0 0 637.75 176.02" xml:space="preserve">
<g>
	<path fill="#F37928" d="M57.91,132.43c-0.79-0.95-1.84-1.51-3.11-1.67c-1.28-0.16-2.39,0.11-3.31,0.82
		c-3.09,2.45-6.88,3.69-11.28,3.69c-4.38,0-8.29-1.62-11.62-4.81c-3.33-3.18-5.02-7.08-5.02-11.58c0-4.5,1.66-8.49,4.91-11.82
		c3.45-3.22,7.43-4.85,11.84-4.85c4.41,0,8.18,1.25,11.17,3.69c0.92,0.76,2.04,1.06,3.32,0.9c1.28-0.16,2.32-0.74,3.09-1.76
		c0.77-1,1.08-2.14,0.92-3.37c-0.16-1.21-0.73-2.23-1.7-3.04c-4.74-3.69-10.29-5.56-16.5-5.56c-7.11,0.04-13.31,2.6-18.43,7.59
		c-5.12,4.99-7.74,11.07-7.79,18.08c0.05,7.05,2.68,13.16,7.8,18.15c5.12,4.99,11.32,7.51,18.43,7.51c6.2,0,11.75-1.87,16.49-5.56
		c0.97-0.74,1.54-1.76,1.7-3.01C58.98,134.61,58.68,133.47,57.91,132.43z"/>
	<path fill="#F37928" d="M262.17,98.65c0-1.26-0.44-2.35-1.31-3.22c-0.86-0.89-1.94-1.34-3.19-1.34c-1.24,0-2.32,0.44-3.21,1.32
		c-0.9,0.89-1.36,1.98-1.36,3.24v25.74c0,3.07-1.08,5.72-3.2,7.87c-2.13,2.15-4.74,3.25-7.77,3.25c-3.02,0-5.64-1.1-7.76-3.28
		c-2.12-2.17-3.2-4.81-3.2-7.84l-0.01-25.74c0-1.27-0.46-2.36-1.36-3.23c-0.89-0.88-1.97-1.33-3.21-1.33
		c-1.25,0-2.33,0.45-3.19,1.33c-0.87,0.88-1.31,1.97-1.31,3.22v25.74c0,5.59,1.97,10.43,5.86,14.38c3.89,3.94,8.66,5.94,14.19,5.94
		c5.52,0,10.3-2.01,14.19-5.98c3.89-3.96,5.86-8.78,5.86-14.33L262.17,98.65z"/>
	<path fill="#F37928" d="M159.64,98.77c-3.89-3.95-8.67-5.95-14.19-5.95c-5.52,0-10.3,2.01-14.19,5.98
		c-3.88,3.97-5.85,8.8-5.85,14.34v25.74c0,1.27,0.44,2.36,1.31,3.23c0.88,0.89,1.95,1.34,3.19,1.34c1.24,0,2.32-0.45,3.22-1.33
		c0.9-0.88,1.35-1.97,1.35-3.25v-25.74c0-3.07,1.08-5.72,3.21-7.87c2.12-2.16,4.73-3.25,7.76-3.25c3.02,0,5.64,1.1,7.76,3.28
		c2.13,2.18,3.21,4.81,3.21,7.84v25.74c0,1.27,0.46,2.36,1.36,3.25c0.89,0.88,1.98,1.33,3.22,1.33c1.24,0,2.31-0.45,3.19-1.34
		c0.87-0.88,1.31-1.97,1.31-3.23v-25.74C165.5,107.54,163.52,102.71,159.64,98.77z"/>
	<path fill="#F37928" d="M337.56,98.81c-3.89-3.94-8.66-5.94-14.19-5.94c-5.52,0-10.3,2.01-14.19,5.97
		c-0.52,0.53-1.02,1.1-1.48,1.68c-0.48-0.6-0.99-1.18-1.52-1.71c-3.89-3.94-8.66-5.94-14.19-5.94c-5.52,0-10.29,2.01-14.18,5.97
		c-3.89,3.97-5.86,8.79-5.86,14.33v25.72c0,1.26,0.44,2.34,1.32,3.23c0.87,0.88,1.95,1.33,3.19,1.33c1.25,0,2.34-0.44,3.22-1.32
		c0.89-0.88,1.35-1.97,1.35-3.24v-25.72c0-3.06,1.08-5.71,3.2-7.87c2.13-2.16,4.74-3.25,7.76-3.25c3.03,0,5.64,1.1,7.76,3.28
		c2.13,2.19,3.22,4.82,3.22,7.84v25.72c0,1.27,0.46,2.36,1.35,3.24c0.89,0.88,1.97,1.32,3.21,1.32c0.03,0,0.05,0,0.08,0
		c0.03,0,0.08,0,0.13,0c0.03,0,0.06,0,0.09,0c1.23,0,2.32-0.45,3.22-1.32c0.9-0.88,1.35-1.97,1.35-3.24v-25.72
		c0-3.07,1.08-5.72,3.21-7.87c2.11-2.16,4.72-3.25,7.76-3.25c3.03,0,5.64,1.1,7.77,3.28c2.13,2.18,3.21,4.82,3.21,7.84v25.72
		c0,1.27,0.46,2.36,1.36,3.24c0.9,0.88,1.98,1.32,3.22,1.32c1.24,0,2.32-0.45,3.19-1.33c0.87-0.87,1.31-1.96,1.31-3.23v-25.72
		C343.41,107.57,341.44,102.74,337.56,98.81z"/>
	<path fill="#F37928" d="M40.06,159.32c-9.63,0-18.91-4.06-25.46-11.13c-0.79-0.85-0.73-2.17,0.11-2.95
		c0.85-0.78,2.17-0.73,2.95,0.12c5.76,6.21,13.92,9.78,22.39,9.78c5.77,0,11.4-1.62,16.26-4.69c0.98-0.62,2.26-0.33,2.89,0.64
		c0.61,0.98,0.33,2.27-0.66,2.89C53.03,157.47,46.63,159.32,40.06,159.32"/>
	<path fill="#F37928" d="M208.91,119.73c-2.51-2.18-6.29-3.85-11.91-5.23c-4.89-1.17-7.69-2.16-9.36-3.29
		c-1.56-1.06-2.2-2.31-2.2-4.29v-0.14c0-1.56,0.71-2.97,2.01-3.98c1.4-1.09,3.39-1.67,5.75-1.67c3.75,0,7.31,1.19,11.19,3.73l0.01,0
		c0.77,0.46,1.53,0.68,2.39,0.68c1.17,0,2.26-0.45,3.08-1.25c0.82-0.81,1.28-1.91,1.28-3.08c0-1.87-1.05-3.15-2.03-3.72
		c-4.66-3.15-9.83-4.68-15.78-4.68c-4.82,0-9.17,1.45-12.26,4.09c-1.54,1.31-2.74,2.88-3.56,4.67c-0.85,1.83-1.28,3.85-1.28,5.99
		v0.14c0,4.51,1.39,7.74,4.37,10.15c2.51,2.03,6.18,3.53,12.25,5.02c9.28,2.17,10.92,4.1,10.92,7.37v0.14
		c0,1.75-0.78,3.24-2.25,4.31c-1.52,1.11-3.67,1.7-6.21,1.7c-4.99,0-9.32-1.61-13.64-5.08c-0.74-0.57-1.63-0.84-2.7-0.84
		c-1.16,0-2.26,0.44-3.08,1.25c-0.82,0.81-1.28,1.91-1.28,3.08c0,1.42,0.67,2.75,1.8,3.57c2.75,2.07,5.74,3.66,8.89,4.73
		c3.14,1.06,6.43,1.6,9.8,1.6c5.22,0,9.67-1.39,12.86-4.01c3.28-2.7,5.02-6.56,5.02-11.16v-0.14
		C212.99,125.28,211.65,122.12,208.91,119.73z"/>
	<path fill="#F37928" d="M472.04,119.73c-2.51-2.18-6.29-3.84-11.91-5.23c-4.89-1.17-7.69-2.16-9.36-3.29
		c-1.56-1.06-2.2-2.3-2.2-4.29v-0.14c0-1.56,0.71-2.97,2.01-3.98c1.4-1.09,3.39-1.67,5.75-1.67c3.75,0,7.31,1.19,11.19,3.73l0.01,0
		c0.77,0.47,1.53,0.68,2.39,0.68c1.17,0,2.26-0.45,3.08-1.25c0.82-0.81,1.28-1.91,1.28-3.08c0-1.88-1.05-3.15-2.03-3.72
		c-4.67-3.15-9.83-4.67-15.78-4.67c-4.82,0-9.17,1.45-12.26,4.09c-1.54,1.31-2.74,2.88-3.56,4.67c-0.85,1.83-1.28,3.85-1.28,5.99
		v0.14c0,4.51,1.39,7.74,4.37,10.15c2.51,2.03,6.18,3.53,12.25,5.02c9.28,2.17,10.92,4.1,10.92,7.37v0.14
		c0,1.75-0.78,3.24-2.25,4.31c-1.52,1.11-3.67,1.7-6.21,1.7c-4.99,0-9.32-1.61-13.64-5.08c-0.74-0.56-1.63-0.84-2.7-0.84
		c-1.17,0-2.26,0.45-3.08,1.25c-0.82,0.81-1.28,1.91-1.28,3.08c0,1.42,0.67,2.75,1.8,3.57c2.75,2.07,5.74,3.66,8.89,4.73
		c3.14,1.06,6.43,1.6,9.8,1.6c5.22,0,9.67-1.39,12.86-4.01c3.28-2.7,5.02-6.56,5.02-11.16v-0.14
		C476.11,125.27,474.78,122.12,472.04,119.73z"/>
	<path fill="#F37928" d="M90.96,93.09c-14.65,0-25.02,11.7-25.02,25.67v0.14c0,13.97,10.22,25.53,24.88,25.53
		c14.65,0,25.02-11.7,25.02-25.67v-0.14C115.84,104.65,105.61,93.09,90.96,93.09z M107.04,118.9c0,9.64-6.61,17.44-16.09,17.44
		s-16.22-7.94-16.22-17.59v-0.14c0-9.64,6.61-17.51,16.09-17.51s16.22,8.01,16.22,17.66V118.9z"/>
	<path fill="#F37928" d="M414.82,33.59c-10.76,0-17.29,7.03-17.29,18.64v7.04c0,11.69,6.62,18.73,17.63,18.73
		c7.29,0,12.8-3.22,15.68-9.15c0.17-0.34,0.26-0.84,0.26-1.19c0-1.27-0.94-2.12-2.2-2.12c-1.02,0-1.62,0.51-1.96,1.19
		c-2.2,4.66-6.35,7.38-11.78,7.38c-8.39,0-13.22-5.6-13.22-15.01v-2.11h28.06c1.36,0,2.12-0.85,2.12-2.29v-2.46
		C432.1,40.62,425.66,33.59,414.82,33.59z M427.78,53.17h-25.85v-0.68c0-9.49,4.75-15,12.89-15c8.21,0,12.97,5.51,12.97,15V53.17z"
		/>
	<path fill="#F37928" d="M293.42,34.34c-1.32,0-2.06,0.84-2.06,2.36v22.91c0,9.1-4.63,14.5-12.58,14.5
		c-8.02,0-12.66-5.39-12.66-14.5V36.69c0-1.52-0.83-2.36-2.15-2.36c-1.32,0-2.15,0.84-2.15,2.36v23.09
		c0,11.37,6.37,18.19,16.96,18.19c10.51,0,16.88-6.82,16.88-18.19V36.69C295.65,35.17,294.83,34.34,293.42,34.34z"/>
	<path fill="#F37928" d="M323.24,33.08c-10.59,0-16.96,6.81-16.96,18.1v23.15c0,1.52,0.83,2.36,2.16,2.36
		c1.32,0,2.14-0.84,2.14-2.36v-22.9c0-9.18,4.64-14.49,12.66-14.49c7.94,0,12.58,5.31,12.58,14.49v22.9c0,1.52,0.74,2.36,2.06,2.36
		c1.41,0,2.24-0.84,2.24-2.36V51.18C340.12,39.89,333.75,33.08,323.24,33.08z"/>
	<g>
		<path fill="#F37928" d="M353.16,19.45c-1.57,0-2.56,0.99-2.56,2.64V24c0,1.57,1,2.56,2.56,2.56c1.58,0,2.57-0.99,2.57-2.56v-1.91
			C355.73,20.44,354.73,19.45,353.16,19.45z"/>
		<path fill="#F37928" d="M353.16,34.34c-1.32,0-2.14,0.82-2.14,2.31v37.72c0,1.49,0.82,2.32,2.14,2.32c1.33,0,2.16-0.83,2.16-2.32
			V36.65C355.31,35.16,354.48,34.34,353.16,34.34z"/>
	</g>
	<path fill="#F37928" d="M389.49,68.91c-0.85,0-1.43,0.42-1.77,1.02c-1.43,2.64-3.71,4.09-6.99,4.09c-4.88,0-7.66-2.99-7.66-8.35
		l0-27.52h15.57c1.27,0,2.11-0.68,2.11-1.87c0-1.28-0.84-1.96-2.11-1.96h-15.57v-9.11c0-1.45-0.85-2.3-2.19-2.3
		c-1.34,0-2.19,0.85-2.19,2.3v9.11h-4.88c-1.25,0-2.09,0.69-2.09,1.96c0,1.19,0.84,1.87,2.09,1.87h4.88v27.52
		c0,7.75,4.38,12.26,11.96,12.26c4.88,0,8.67-2.13,10.68-5.62c0.17-0.34,0.26-0.77,0.26-1.19
		C391.59,69.68,390.75,68.91,389.49,68.91z"/>
	<path fill="#F37928" d="M473.69,17.05c-1.32,0-2.15,0.86-2.15,2.39V38.5c-3-3.49-7.47-5.41-13.09-5.41c-0.03,0-0.05,0-0.08,0
		c-0.02,0-0.05,0-0.07,0c-0.49,0-0.98,0.02-1.46,0.06c-0.09,0.01-0.18,0.01-0.26,0.02c-9.64,0.58-15.4,7.55-15.4,18.62v7.28
		c0,11.8,6.46,18.91,17.3,18.91c10.84,0,17.37-7.11,17.37-18.91V54.3v-2.27V19.44C475.84,17.91,475.01,17.05,473.69,17.05z
		 M471.54,58.89c0,9.5-4.8,15.15-13.07,15.15c-8.27,0-12.98-5.65-12.98-15.15v-6.84c0-9.41,4.79-14.98,12.98-14.98
		c0.39,0,0.78-0.01,1.16,0.02c7.55,0.51,11.91,6.06,11.91,15.11V58.89z"/>
	<path fill="#F37928" d="M387.3,98.63c-3.58-3.87-8.76-5.91-14.98-5.91c-12.57,0-20.39,8.37-20.39,21.84v7.6
		c0,6.64,1.91,12.18,5.53,16.02c3.64,3.87,8.91,5.91,15.22,5.91c7.69,0,13.78-3.14,17.39-8.9h0c0.42-0.64,0.66-1.41,0.66-2.24
		c0-2.27-1.84-4.11-4.11-4.11c-1.48,0-2.78,0.78-3.5,1.96l-0.01,0c-2.24,3.65-5.89,5.64-10.44,5.64c-8.09,0-12.55-5.15-12.56-14.48
		v-0.57h28.57c2.4,0,4.01-1.68,4.01-4.19v-2.66C392.7,107.96,390.83,102.45,387.3,98.63z M360.14,113.85
		c0.3-8.71,4.6-13.49,12.18-13.49c7.64,0,11.97,4.78,12.27,13.49H360.14z"/>
	<path fill="#F37928" d="M432.83,95.48L432.83,95.48c-0.01-0.01-0.02-0.01-0.03-0.02c-0.02-0.01-0.03-0.02-0.05-0.03
		c-3.45-1.87-8.28-2.86-12.52-2.86c-11.5,0-18.45,7.43-18.45,19.79v26.36c0,3.05,1.8,4.85,4.53,4.85c2.74,0,4.54-1.8,4.54-4.85
		v-25.26c0-7.98,3.21-12.59,9.77-12.59c2.95,0,5.69,1.14,7.76,2.06c0.81,0.39,1.47,0.68,2.33,0.68c2.4,0,4.34-1.94,4.34-4.34
		C435.05,97.64,434.15,96.22,432.83,95.48z"/>
</g>
<g>
	<path fill="#F37928" d="M617.88,102l-0.05-0.06c-1.71-2.05-3.96-3.26-6.69-3.61c-2.74-0.35-5.13,0.25-7.13,1.78
		c-6.64,5.29-14.81,7.98-24.28,7.98c-9.43,0-17.84-3.49-25.02-10.38c-7.16-6.87-10.79-15.28-10.79-24.98
		c0-9.72,3.56-18.31,10.55-25.49c7.43-6.95,16-10.47,25.49-10.47c9.5,0,17.6,2.68,24.04,7.97c1.97,1.63,4.39,2.28,7.14,1.94
		c2.75-0.34,4.99-1.62,6.65-3.81c1.65-2.18,2.32-4.62,1.98-7.26c-0.34-2.62-1.56-4.83-3.64-6.56c-10.2-7.96-22.14-11.99-35.5-11.99
		c-15.31,0.1-28.65,5.6-39.66,16.37c-11.02,10.77-16.66,23.89-16.76,39.02c0.1,15.21,5.74,28.38,16.77,39.15
		c11.01,10.76,24.36,16.21,39.67,16.21c13.35,0,25.29-4.03,35.49-11.99c2.08-1.61,3.3-3.79,3.65-6.5
		C620.11,106.63,619.48,104.17,617.88,102"/>
	<path fill="#F37928" d="M578.83,159.61c-20.2,0-39.66-8.51-53.4-23.33c-1.65-1.77-1.54-4.55,0.24-6.19
		c1.78-1.64,4.55-1.54,6.19,0.24c12.08,13.04,29.2,20.52,46.96,20.52c12.12,0,23.91-3.4,34.11-9.84c2.04-1.3,4.75-0.68,6.04,1.37
		c1.29,2.05,0.68,4.76-1.37,6.05C606.01,155.74,592.61,159.61,578.83,159.61"/>
</g>
</svg>
